<svg xmlns="http://www.w3.org/2000/svg" viewBox="90 130 332 240" width="512" height="512">
  <!-- 汽车主体 -->
  <path d="M90,300 C90,240 120,200 256,200 C392,200 422,240 422,300 L422,330 C422,350 392,370 256,370 C120,370 90,350 90,330 Z" fill="#fbbf24" stroke="#374151" stroke-width="3"/>
  
  <!-- 车顶 -->
  <path d="M150,200 C170,150 342,150 362,200" fill="none" stroke="#374151" stroke-width="3"/>
  
  <!-- 车轮 -->
  <circle cx="150" cy="330" r="30" fill="#374151" stroke="#000" stroke-width="2"/>
  <circle cx="150" cy="330" r="15" fill="#fbbf24" stroke="#000" stroke-width="1"/>
  <circle cx="362" cy="330" r="30" fill="#374151" stroke="#000" stroke-width="2"/>
  <circle cx="362" cy="330" r="15" fill="#fbbf24" stroke="#000" stroke-width="1"/>
  
  <!-- 车窗 -->
  <path d="M170,200 C190,170 322,170 342,200" fill="#f3f4f6" stroke="#374151" stroke-width="2"/>
  
  <!-- 车灯 -->
  <ellipse cx="120" cy="260" rx="15" ry="10" fill="#fef3c7" stroke="#000" stroke-width="1"/>
  <ellipse cx="392" cy="260" rx="15" ry="10" fill="#fef3c7" stroke="#000" stroke-width="1"/>
  
  <!-- 担忧表情 - 眼睛 -->
  <path d="M190,245 C195,240 205,240 210,245" fill="none" stroke="#374151" stroke-width="3"/>
  <path d="M302,245 C307,240 317,240 322,245" fill="none" stroke="#374151" stroke-width="3"/>
  
  <!-- 担忧表情 - 眉毛 -->
  <path d="M185,235 L215,225" fill="none" stroke="#374151" stroke-width="2" stroke-linecap="round"/>
  <path d="M297,225 L327,235" fill="none" stroke="#374151" stroke-width="2" stroke-linecap="round"/>
  
  <!-- 担忧表情 - 嘴巴 -->
  <path d="M220,300 C240,290 272,290 292,300" fill="none" stroke="#374151" stroke-width="3" stroke-linecap="round"/>
  
  <!-- 汗滴 -->
  <path d="M180,230 L175,210" fill="none" stroke="#374151" stroke-width="2"/>
  <circle cx="175" cy="205" r="5" fill="#f3f4f6" stroke="#374151" stroke-width="1"/>
  
  <!-- 罚单背景 -->
  <rect x="400" y="220" width="70" height="80" fill="#fee2e2" stroke="#ef4444" stroke-width="2"/>
  <path d="M400,240 L470,240" stroke="#ef4444" stroke-width="1"/>
  <path d="M400,260 L470,260" stroke="#ef4444" stroke-width="1"/>
  <path d="M400,280 L470,280" stroke="#ef4444" stroke-width="1"/>
  <text x="435" y="230" font-family="Arial" font-size="16" font-weight="bold" text-anchor="middle" fill="#ef4444" stroke="#fff" stroke-width="0.5">罚单</text>
  <text x="435" y="300" font-family="Arial" font-size="24" font-weight="bold" text-anchor="middle" fill="#ef4444" stroke="#fff" stroke-width="0.5">¥200</text>
  
  <!-- 对话框背景 -->
  <path d="M350,180 C390,180 390,130 350,130 L280,130 L270,150 L260,130 L220,130 C180,130 180,180 220,180 Z" fill="#fff" stroke="#374151" stroke-width="2"/>
  <!-- 对话框文字 -->
  <text x="285" y="162" font-family="Arial" font-size="20" font-weight="bold" text-anchor="middle" fill="#ef4444" stroke="#fff" stroke-width="0.5">糟糕！又要被罚款了！</text>
</svg>